{
	"asset":{
		"version":"2.0",
		"generator":""
	},
	"scenes":[{
		"nodes":[0]
	}],
	"nodes":[{
		"name":"Default",
		"translation":[0.0015959287993609906,
		0.00013473448052536696,
		-0.001073076156899333],
		"rotation":[0.0,
		0.0,
		0.0,
		-1.0],
		"scale":[1.0,
		1.0,
		1.0],
		"children":[1]
	},
	{
		"name":"Default",
		"mesh":0
	}],
	"meshes":[{
		"name":"Default",
		"primitives":[{
			"attributes":{
				"POSITION":1,
				"NORMAL":2,
				"TEXCOORD_0":3
			},
			"indices":0,
			"material":0
		}]
	}],
	"accessors":[{
		"bufferView":0,
		"type":"SCALAR",
		"componentType":5123,
		"count":149190,
		"byteOffset":0,
		"min":[0],
		"max":[28238]
	},
	{
		"bufferView":1,
		"type":"VEC3",
		"componentType":5126,
		"count":28239,
		"byteOffset":0,
		"min":[-0.010376612655818463,
		-0.010231198742985726,
		-0.0050198049284517769],
		"max":[0.0106067368760705,
		0.008134957402944565,
		0.007331366650760174]
	},
	{
		"bufferView":1,
		"type":"VEC3",
		"componentType":5126,
		"count":28239,
		"byteOffset":12,
		"min":[-0.9943181872367859,
		-0.9988768100738525,
		-0.9998982548713684],
		"max":[0.9999865293502808,
		0.9997081160545349,
		0.999941885471344]
	},
	{
		"bufferView":1,
		"type":"VEC2",
		"componentType":5126,
		"count":28239,
		"byteOffset":24,
		"min":[0.00008600000001024455,
		0.00002300000051036477],
		"max":[0.9948520064353943,
		0.9999769926071167]
	}],
	"bufferViews":[{
		"target":34963,
		"buffer":0,
		"byteOffset":0,
		"byteLength":298380
	},
	{
		"target":34962,
		"buffer":0,
		"byteOffset":298380,
		"byteLength":903648,
		"byteStride":32
	}],
	"buffers":[{
		"uri":"data:application/octet-stream;base64,",
		"byteLength":1202028
	}],
	"materials":[{
		"pbrMetallicRoughness":{
			"baseColorFactor":[0.0,
			0.0,
			0.0,
			1.0],
			"metallicFactor":0.0,
			"roughnessFactor":0.0
		},
		"name":"RS Material",
		"emissiveFactor":[0.0,
		0.0,
		0.0],
		"alphaMode":"OPAQUE",
		"doubleSided":false
	}]
}